<?xml version="1.0" standalone="no"?>
<!DOCTYPE svg PUBLIC "-//W3C//DTD SVG 20010904//EN"
 "http://www.w3.org/TR/2001/REC-SVG-20010904/DTD/svg10.dtd">
<svg version="1.0" xmlns="http://www.w3.org/2000/svg"
 width="383.000000pt" height="93.000000pt" viewBox="0 0 383.000000 93.000000"
 preserveAspectRatio="xMidYMid meet">

<g transform="translate(0.000000,93.000000) scale(0.100000,-0.100000)"
fill="#000000" stroke="none">
<path d="M331 851 c-28 -30 -29 -30 -46 -11 -32 35 -105 17 -105 -25 0 -10 11
-38 26 -62 14 -24 23 -47 20 -52 -3 -5 5 -25 19 -45 30 -45 30 -46 3 -93 -29
-48 -84 -102 -123 -119 -44 -18 -68 -48 -60 -74 6 -20 11 -21 49 -15 22 4 60
9 83 10 l42 2 -39 -28 c-22 -16 -47 -40 -56 -54 -9 -14 -22 -25 -29 -25 -16 0
-39 -55 -31 -75 6 -16 40 -32 80 -37 13 -2 31 -10 41 -18 28 -24 131 -17 202
12 53 22 64 24 74 12 6 -8 20 -14 30 -14 12 0 19 -7 19 -19 0 -31 124 -65 240
-66 83 0 100 3 133 23 20 13 42 32 47 43 6 10 16 19 23 19 19 0 67 49 67 69 0
19 -35 56 -53 56 -7 0 -32 9 -57 21 -25 12 -56 26 -70 32 l-25 11 28 0 c15 1
27 5 27 10 0 4 21 11 46 14 41 4 63 18 64 39 0 18 -33 36 -77 41 -26 3 -61 13
-78 21 -16 9 -35 16 -41 16 -6 0 -27 15 -46 33 l-36 33 5 122 4 121 -27 7
c-35 9 -78 -14 -82 -44 l-3 -22 -30 21 c-34 24 -59 19 -59 -10 0 -11 -3 -22
-8 -24 -4 -3 -5 -39 -2 -81 5 -73 4 -75 -12 -53 -10 12 -18 28 -18 36 0 7 -8
28 -19 45 -10 17 -24 49 -31 71 -7 22 -16 44 -21 49 -5 6 -9 20 -9 32 0 12 -7
24 -15 28 -8 3 -15 12 -15 20 0 29 -21 27 -49 -3z m182 -390 c8 -31 -5 -39
-71 -42 l-63 -4 28 23 c23 18 65 37 94 41 4 1 9 -8 12 -18z m-16 -75 c4 -3 4
-9 0 -12 -9 -9 -321 -122 -326 -117 -8 6 62 74 94 91 77 43 110 52 168 48 32
-2 61 -7 64 -10z m183 -64 c0 -4 -20 -12 -45 -18 -42 -10 -44 -9 -27 7 17 18
72 26 72 11z m-204 -61 c-46 -47 -107 -78 -177 -91 -55 -9 -139 1 -109 14 37
15 306 114 315 115 5 1 -8 -16 -29 -38z m419 6 l50 -26 -183 -1 c-121 0 -181
3 -177 10 3 6 23 19 43 30 56 31 198 24 267 -13z m15 -130 c-63 -31 -196 -31
-260 0 l-45 21 175 0 175 0 -45 -21z"/>
<path d="M2950 857 c-49 -25 -60 -67 -60 -240 0 -203 9 -230 87 -247 46 -11
98 5 123 37 17 22 20 40 20 135 l0 109 -52 -3 c-52 -3 -53 -4 -56 -36 -3 -27
1 -35 17 -39 18 -5 21 -13 21 -57 0 -64 -9 -78 -46 -74 l-29 3 0 169 c0 150 2
170 18 180 28 18 52 -4 55 -53 3 -40 4 -41 38 -41 34 0 34 0 34 45 0 24 -5 56
-12 70 -22 49 -102 70 -158 42z"/>
<path d="M3252 857 c-53 -30 -57 -49 -57 -237 0 -187 4 -206 51 -237 32 -20
107 -20 139 1 39 25 47 75 43 258 -3 166 -3 168 -30 194 -31 32 -109 43 -146
21z m87 -71 c8 -9 11 -65 9 -177 l-3 -164 -29 -3 c-16 -2 -32 2 -37 10 -12 19
-11 306 1 329 12 22 43 25 59 5z"/>
<path d="M3554 851 c-46 -28 -54 -65 -54 -238 0 -207 19 -246 120 -246 48 0
80 15 100 46 20 29 27 323 10 380 -21 69 -109 99 -176 58z m94 -63 c14 -14 17
-315 3 -336 -5 -8 -21 -12 -37 -10 l-29 3 -3 164 c-3 168 2 191 37 191 9 0 22
-5 29 -12z"/>
<path d="M1080 615 l0 -245 40 0 40 0 0 99 0 100 48 3 c45 3 47 4 50 36 l3 32
-50 0 -51 0 0 75 0 75 60 0 60 0 0 35 0 35 -100 0 -100 0 0 -245z"/>
<path d="M1350 615 l0 -245 40 0 40 0 0 245 0 245 -40 0 -40 0 0 -245z"/>
<path d="M1490 825 c0 -34 1 -35 40 -35 l40 0 0 -210 0 -210 40 0 40 0 0 210
0 210 40 0 c39 0 40 1 40 35 l0 35 -120 0 -120 0 0 -35z"/>
<path d="M1930 615 l0 -245 40 0 40 0 0 76 c0 41 5 85 11 97 11 19 16 12 49
-73 l36 -95 41 -3 41 -3 -54 138 -55 137 51 104 c27 57 50 106 50 108 0 2 -16
4 -36 4 -35 0 -36 -1 -84 -102 l-49 -103 -1 103 0 102 -40 0 -40 0 0 -245z"/>
<path d="M2310 855 c0 -4 -63 -399 -74 -463 -3 -21 0 -23 33 -20 27 2 37 8 39
23 9 64 10 65 57 65 47 0 48 -1 57 -65 4 -28 78 -36 78 -8 0 10 -16 115 -35
233 -19 118 -35 221 -35 228 0 8 -19 12 -60 12 -33 0 -60 -2 -60 -5z m75 -207
c8 -54 15 -102 15 -108 0 -5 -16 -10 -35 -10 -19 0 -35 3 -35 8 0 21 34 225
36 217 2 -6 10 -54 19 -107z"/>
<path d="M2570 615 l0 -245 35 0 35 0 2 167 3 167 44 -167 44 -167 39 0 38 0
0 245 0 245 -35 0 -35 0 -1 -132 -1 -133 -35 133 -36 132 -48 0 -49 0 0 -245z"/>
<path d="M2252 268 c-7 -7 -12 -42 -12 -88 0 -46 5 -81 12 -88 15 -15 51 -15
66 0 17 17 15 58 -3 58 -8 0 -15 -9 -15 -20 0 -11 -7 -20 -15 -20 -12 0 -15
14 -15 70 0 53 3 70 14 70 7 0 16 -9 19 -20 7 -27 27 -25 27 3 0 29 -18 47
-45 47 -12 0 -26 -5 -33 -12z"/>
<path d="M2390 180 l0 -100 40 0 c29 0 40 4 40 15 0 9 -9 15 -25 15 -25 0 -25
1 -25 85 0 69 -3 85 -15 85 -12 0 -15 -18 -15 -100z"/>
<path d="M2520 199 c0 -96 10 -119 50 -119 40 0 50 23 50 119 0 64 -3 81 -15
81 -11 0 -15 -18 -17 -82 -2 -66 -6 -83 -18 -83 -12 0 -16 17 -18 83 -2 64 -6
82 -17 82 -12 0 -15 -17 -15 -81z"/>
<path d="M2680 180 l0 -100 34 0 c18 0 38 6 44 13 14 16 13 158 0 175 -6 6
-26 12 -44 12 l-34 0 0 -100z m58 48 c-5 -32 -28 -35 -28 -4 0 17 5 26 16 26
10 0 14 -7 12 -22z m2 -88 c0 -20 -5 -30 -15 -30 -10 0 -15 10 -15 30 0 20 5
30 15 30 10 0 15 -10 15 -30z"/>
<path d="M2910 180 l0 -100 40 0 c29 0 42 5 50 19 13 25 13 68 0 76 -6 4 -6
15 0 30 6 16 6 34 0 50 -8 21 -16 25 -50 25 l-40 0 0 -100z m60 45 c0 -16 -6
-25 -15 -25 -9 0 -15 9 -15 25 0 16 6 25 15 25 9 0 15 -9 15 -25z m5 -85 c0
-16 -6 -26 -17 -28 -14 -3 -18 3 -18 28 0 25 4 31 18 28 11 -2 17 -12 17 -28z"/>
<path d="M3060 180 l0 -100 45 0 c33 0 45 4 45 15 0 9 -9 15 -25 15 -21 0 -25
5 -25 30 0 23 4 30 20 30 11 0 20 7 20 15 0 8 -9 15 -20 15 -15 0 -20 7 -20
25 0 20 5 25 25 25 16 0 25 6 25 15 0 11 -12 15 -45 15 l-45 0 0 -100z"/>
<path d="M3210 180 c0 -82 3 -100 15 -100 11 0 15 11 15 41 0 52 24 48 28 -4
2 -23 8 -37 17 -37 11 0 14 20 13 88 0 48 -5 93 -10 100 -6 6 -26 12 -44 12
l-34 0 0 -100z m58 43 c-4 -39 -28 -42 -28 -4 0 21 5 31 16 31 11 0 14 -8 12
-27z"/>
<path d="M3360 180 l0 -100 40 0 c29 0 40 4 40 15 0 9 -9 15 -25 15 -25 0 -25
1 -25 85 0 69 -3 85 -15 85 -12 0 -15 -18 -15 -100z"/>
<path d="M3490 180 c0 -93 1 -100 20 -100 19 0 20 7 20 100 0 93 -1 100 -20
100 -19 0 -20 -7 -20 -100z"/>
<path d="M3590 180 c0 -60 4 -100 10 -100 6 0 10 29 10 68 1 74 10 69 30 -15
9 -41 16 -53 31 -53 17 0 19 8 19 100 0 82 -3 100 -15 100 -11 0 -15 -13 -16
-52 l-1 -53 -16 53 c-11 38 -20 52 -33 52 -17 0 -19 -9 -19 -100z"/>
</g>
</svg>
